<svg data-v-423bf9ae="" xmlns="http://www.w3.org/2000/svg" viewBox="0 0 640 110" class="iconLeft"><!----><!----><!----><g data-v-423bf9ae="" id="04f53c4d-3bc9-44cc-b565-45bcb68f6416" fill="#7D6463" transform="matrix(5.741626899055351,0,0,5.741626899055351,117.81640454549887,6.5796008916600925)"><path d="M7.53 8.50L7.53 8.50Q8.58 8.69 9.13 9.32L9.13 9.32L9.13 9.32Q9.69 9.95 9.69 10.96L9.69 10.96L9.69 10.96Q9.69 12.21 8.78 12.88L8.78 12.88L8.78 12.88Q7.87 13.55 6.08 13.55L6.08 13.55L1.71 13.55L1.71 3.75L5.80 3.75L5.80 3.75Q7.39 3.75 8.28 4.40L8.28 4.40L8.28 4.40Q9.17 5.05 9.17 6.26L9.17 6.26L9.17 6.26Q9.17 7.10 8.73 7.67L8.73 7.67L8.73 7.67Q8.29 8.25 7.53 8.50L7.53 8.50ZM5.77 4.37L2.42 4.37L2.42 8.27L5.77 8.27L5.77 8.27Q7.06 8.27 7.75 7.78L7.75 7.78L7.75 7.78Q8.44 7.28 8.44 6.31L8.44 6.31L8.44 6.31Q8.44 5.36 7.75 4.87L7.75 4.87L7.75 4.87Q7.06 4.37 5.77 4.37L5.77 4.37ZM6.08 12.94L6.08 12.94Q7.50 12.94 8.24 12.44L8.24 12.44L8.24 12.44Q8.97 11.94 8.97 10.91L8.97 10.91L8.97 10.91Q8.97 9.87 8.24 9.38L8.24 9.38L8.24 9.38Q7.50 8.89 6.08 8.89L6.08 8.89L2.42 8.89L2.42 12.94L6.08 12.94ZM12.68 7.84L12.68 7.84Q13.02 7.04 13.73 6.61L13.73 6.61L13.73 6.61Q14.45 6.19 15.47 6.19L15.47 6.19L15.47 6.87L15.30 6.86L15.30 6.86Q14.08 6.86 13.40 7.62L13.40 7.62L13.40 7.62Q12.71 8.39 12.71 9.74L12.71 9.74L12.71 13.55L12.01 13.55L12.01 6.24L12.68 6.24L12.68 7.84ZM23.72 9.87L23.70 10.07L17.42 10.07L17.42 10.07Q17.44 10.92 17.85 11.58L17.85 11.58L17.85 11.58Q18.26 12.25 18.95 12.61L18.95 12.61L18.95 12.61Q19.64 12.98 20.51 12.98L20.51 12.98L20.51 12.98Q21.22 12.98 21.83 12.72L21.83 12.72L21.83 12.72Q22.44 12.46 22.85 11.96L22.85 11.96L23.25 12.42L23.25 12.42Q22.78 12.99 22.06 13.30L22.06 13.30L22.06 13.30Q21.34 13.61 20.50 13.61L20.50 13.61L20.50 13.61Q19.40 13.61 18.55 13.13L18.55 13.13L18.55 13.13Q17.70 12.66 17.21 11.82L17.21 11.82L17.21 11.82Q16.73 10.98 16.73 9.90L16.73 9.90L16.73 9.90Q16.73 8.83 17.19 7.99L17.19 7.99L17.19 7.99Q17.64 7.14 18.44 6.66L18.44 6.66L18.44 6.66Q19.24 6.19 20.23 6.19L20.23 6.19L20.23 6.19Q21.22 6.19 22.02 6.66L22.02 6.66L22.02 6.66Q22.81 7.13 23.26 7.97L23.26 7.97L23.26 7.97Q23.72 8.81 23.72 9.87L23.72 9.87ZM20.23 6.80L20.23 6.80Q19.46 6.80 18.84 7.15L18.84 7.15L18.84 7.15Q18.23 7.49 17.86 8.11L17.86 8.11L17.86 8.11Q17.49 8.74 17.43 9.52L17.43 9.52L23.03 9.52L23.03 9.52Q22.99 8.74 22.61 8.12L22.61 8.12L22.61 8.12Q22.23 7.50 21.62 7.15L21.62 7.15L21.62 7.15Q21 6.80 20.23 6.80L20.23 6.80ZM35.69 6.24L36.33 6.24L33.56 13.55L32.90 13.55L30.44 7.21L27.96 13.55L27.31 13.55L24.54 6.24L25.21 6.24L27.65 12.77L30.14 6.24L30.74 6.24L33.22 12.75L35.69 6.24ZM44.14 9.87L44.13 10.07L37.84 10.07L37.84 10.07Q37.87 10.92 38.28 11.58L38.28 11.58L38.28 11.58Q38.68 12.25 39.38 12.61L39.38 12.61L39.38 12.61Q40.07 12.98 40.94 12.98L40.94 12.98L40.94 12.98Q41.65 12.98 42.26 12.72L42.26 12.72L42.26 12.72Q42.87 12.46 43.27 11.96L43.27 11.96L43.68 12.42L43.68 12.42Q43.20 12.99 42.48 13.30L42.48 13.30L42.48 13.30Q41.76 13.61 40.92 13.61L40.92 13.61L40.92 13.61Q39.83 13.61 38.98 13.13L38.98 13.13L38.98 13.13Q38.12 12.66 37.64 11.82L37.64 11.82L37.64 11.82Q37.16 10.98 37.16 9.90L37.16 9.90L37.16 9.90Q37.16 8.83 37.61 7.99L37.61 7.99L37.61 7.99Q38.07 7.14 38.86 6.66L38.86 6.66L38.86 6.66Q39.66 6.19 40.66 6.19L40.66 6.19L40.66 6.19Q41.65 6.19 42.44 6.66L42.44 6.66L42.44 6.66Q43.23 7.13 43.69 7.97L43.69 7.97L43.69 7.97Q44.14 8.81 44.14 9.87L44.14 9.87ZM40.66 6.80L40.66 6.80Q39.89 6.80 39.27 7.15L39.27 7.15L39.27 7.15Q38.65 7.49 38.28 8.11L38.28 8.11L38.28 8.11Q37.91 8.74 37.86 9.52L37.86 9.52L43.46 9.52L43.46 9.52Q43.41 8.74 43.04 8.12L43.04 8.12L43.04 8.12Q42.66 7.50 42.04 7.15L42.04 7.15L42.04 7.15Q41.43 6.80 40.66 6.80L40.66 6.80ZM52.11 3.16L52.81 3.16L52.81 13.55L52.12 13.55L52.12 11.83L52.12 11.83Q51.69 12.68 50.90 13.15L50.90 13.15L50.90 13.15Q50.12 13.61 49.13 13.61L49.13 13.61L49.13 13.61Q48.10 13.61 47.28 13.13L47.28 13.13L47.28 13.13Q46.45 12.66 45.98 11.82L45.98 11.82L45.98 11.82Q45.51 10.98 45.51 9.90L45.51 9.90L45.51 9.90Q45.51 8.82 45.98 7.97L45.98 7.97L45.98 7.97Q46.45 7.13 47.28 6.66L47.28 6.66L47.28 6.66Q48.10 6.19 49.13 6.19L49.13 6.19L49.13 6.19Q50.11 6.19 50.88 6.65L50.88 6.65L50.88 6.65Q51.66 7.11 52.11 7.94L52.11 7.94L52.11 3.16ZM49.17 12.98L49.17 12.98Q50.01 12.98 50.67 12.59L50.67 12.59L50.67 12.59Q51.34 12.19 51.72 11.49L51.72 11.49L51.72 11.49Q52.11 10.79 52.11 9.90L52.11 9.90L52.11 9.90Q52.11 9.00 51.72 8.30L51.72 8.30L51.72 8.30Q51.34 7.60 50.67 7.21L50.67 7.21L50.67 7.21Q50.01 6.82 49.17 6.82L49.17 6.82L49.17 6.82Q48.33 6.82 47.66 7.21L47.66 7.21L47.66 7.21Q47.00 7.60 46.61 8.30L46.61 8.30L46.61 8.30Q46.23 9.00 46.23 9.90L46.23 9.90L46.23 9.90Q46.23 10.79 46.61 11.49L46.61 11.49L46.61 11.49Q47.00 12.19 47.66 12.59L47.66 12.59L47.66 12.59Q48.33 12.98 49.17 12.98L49.17 12.98ZM66.85 3.75L67.56 3.75L67.56 13.55L66.85 13.55L66.85 8.89L60.30 8.89L60.30 13.55L59.58 13.55L59.58 3.75L60.30 3.75L60.30 8.26L66.85 8.26L66.85 3.75ZM76.94 9.87L76.93 10.07L70.64 10.07L70.64 10.07Q70.67 10.92 71.08 11.58L71.08 11.58L71.08 11.58Q71.48 12.25 72.18 12.61L72.18 12.61L72.18 12.61Q72.87 12.98 73.74 12.98L73.74 12.98L73.74 12.98Q74.45 12.98 75.06 12.72L75.06 12.72L75.06 12.72Q75.67 12.46 76.08 11.96L76.08 11.96L76.48 12.42L76.48 12.42Q76.01 12.99 75.29 13.30L75.29 13.30L75.29 13.30Q74.56 13.61 73.72 13.61L73.72 13.61L73.72 13.61Q72.63 13.61 71.78 13.13L71.78 13.13L71.78 13.13Q70.92 12.66 70.44 11.82L70.44 11.82L70.44 11.82Q69.96 10.98 69.96 9.90L69.96 9.90L69.96 9.90Q69.96 8.83 70.41 7.99L70.41 7.99L70.41 7.99Q70.87 7.14 71.67 6.66L71.67 6.66L71.67 6.66Q72.46 6.19 73.46 6.19L73.46 6.19L73.46 6.19Q74.45 6.19 75.24 6.66L75.24 6.66L75.24 6.66Q76.03 7.13 76.49 7.97L76.49 7.97L76.49 7.97Q76.94 8.81 76.94 9.87L76.94 9.87ZM73.46 6.80L73.46 6.80Q72.69 6.80 72.07 7.15L72.07 7.15L72.07 7.15Q71.46 7.49 71.09 8.11L71.09 8.11L71.09 8.11Q70.71 8.74 70.66 9.52L70.66 9.52L76.26 9.52L76.26 9.52Q76.22 8.74 75.84 8.12L75.84 8.12L75.84 8.12Q75.46 7.50 74.84 7.15L74.84 7.15L74.84 7.15Q74.23 6.80 73.46 6.80L73.46 6.80ZM79.79 7.84L79.79 7.84Q80.12 7.04 80.84 6.61L80.84 6.61L80.84 6.61Q81.55 6.19 82.57 6.19L82.57 6.19L82.57 6.87L82.40 6.86L82.40 6.86Q81.19 6.86 80.50 7.62L80.50 7.62L80.50 7.62Q79.81 8.39 79.81 9.74L79.81 9.74L79.81 13.55L79.11 13.55L79.11 6.24L79.79 6.24L79.79 7.84ZM90.82 9.87L90.80 10.07L84.52 10.07L84.52 10.07Q84.55 10.92 84.95 11.58L84.95 11.58L84.95 11.58Q85.36 12.25 86.05 12.61L86.05 12.61L86.05 12.61Q86.74 12.98 87.61 12.98L87.61 12.98L87.61 12.98Q88.33 12.98 88.94 12.72L88.94 12.72L88.94 12.72Q89.54 12.46 89.95 11.96L89.95 11.96L90.36 12.42L90.36 12.42Q89.88 12.99 89.16 13.30L89.16 13.30L89.16 13.30Q88.44 13.61 87.60 13.61L87.60 13.61L87.60 13.61Q86.51 13.61 85.65 13.13L85.65 13.13L85.65 13.13Q84.80 12.66 84.32 11.82L84.32 11.82L84.32 11.82Q83.83 10.98 83.83 9.90L83.83 9.90L83.83 9.90Q83.83 8.83 84.29 7.99L84.29 7.99L84.29 7.99Q84.74 7.14 85.54 6.66L85.54 6.66L85.54 6.66Q86.34 6.19 87.33 6.19L87.33 6.19L87.33 6.19Q88.33 6.19 89.12 6.66L89.12 6.66L89.12 6.66Q89.91 7.13 90.36 7.97L90.36 7.97L90.36 7.97Q90.82 8.81 90.82 9.87L90.82 9.87ZM87.33 6.80L87.33 6.80Q86.56 6.80 85.95 7.15L85.95 7.15L85.95 7.15Q85.33 7.49 84.96 8.11L84.96 8.11L84.96 8.11Q84.59 8.74 84.53 9.52L84.53 9.52L90.13 9.52L90.13 9.52Q90.09 8.74 89.71 8.12L89.71 8.12L89.71 8.12Q89.33 7.50 88.72 7.15L88.72 7.15L88.72 7.15Q88.10 6.80 87.33 6.80L87.33 6.80Z"></path></g><!----><g data-v-423bf9ae="" id="0abf44ae-0762-4101-b130-ed35d2617933" transform="matrix(1.1027555677625869,0,0,1.1027555677625869,-0.9535395314107333,0.25137370388724634)" stroke="none" fill="#AF9594"><path d="M29.368 52.156V80.8M29.368 83.518A2.719 2.719 0 0 1 26.65 80.8V52.156a2.718 2.718 0 1 1 5.438 0V80.8a2.72 2.72 0 0 1-2.72 2.718zM43.369 52.156V80.8M43.369 83.518A2.72 2.72 0 0 1 40.65 80.8V52.156a2.718 2.718 0 1 1 5.438 0V80.8c0 1.5-1.217 2.718-2.719 2.718zM57.417 52.125v28.644M57.417 83.488a2.72 2.72 0 0 1-2.719-2.72V52.125a2.72 2.72 0 0 1 5.44 0v28.644a2.72 2.72 0 0 1-2.721 2.719zM81.543 64.641h-7.191a2.72 2.72 0 0 1-2.72-2.719V42.871a2.719 2.719 0 0 1 2.72-2.719h7.031c1.979 0 3.205.814 3.883 1.498 1.406 1.417 1.466 3.22 1.463 3.567v13.952c.01.526-.062 2.496-1.495 3.982-.655.679-1.83 1.49-3.691 1.49zm-4.473-5.439h4.222V45.589H77.07v13.613z"></path><path d="M86.846 26.419h-7.457c1.711-5.512.539-11.744-3.044-15.975-3.586-4.236-9.157-6.766-14.898-6.766-4.109 0-7.85 1.29-10.733 3.6-3.045-4.6-9.469-7.03-15.613-7.03-7.055 0-14.166 3.225-16.001 10.323a23.42 23.42 0 0 0-3.91-.347c-8.456 0-13.503 5.16-13.846 14.155-.185 4.844 1.047 8.677 3.662 11.394 1.359 1.413 3.049 2.442 4.988 3.094v48.546c0 6.663 5.421 12.083 12.083 12.083h43.366c6.663 0 12.084-5.42 12.084-12.083V78.04l.002.001c.004 0 .011-.007.016-.008l9.302.004c6.663 0 12.084-5.419 12.084-12.083V38.502c-.001-6.662-5.422-12.083-12.085-12.083zM7.381 24.608c.22-5.77 2.627-8.343 7.808-8.343 2.894 0 5.454.875 5.47.882a3.02 3.02 0 0 0 4.027-2.848c0-7.624 8.675-8.01 10.414-8.01 5.471 0 11.377 2.697 11.377 7.055a3.022 3.022 0 0 0 5.676 1.443c1.75-3.22 5.137-5.067 9.293-5.067 3.987 0 7.833 1.731 10.287 4.629 1.765 2.083 3.303 6.083 1.82 10.503-1.37 4.089-4.123 5.996-8.671 5.996-5.169 0-10.442-2.554-10.489-2.578a3.022 3.022 0 0 0-3.962 1.212c-.036.061-3.572 6.132-10.103 6.347-7.393.244-9.499-5.106-9.7-5.674a3.021 3.021 0 0 0-5.433-.66c-1.222 1.96-5.639 4.143-10.023 4.143-1.749 0-4.177-.356-5.813-2.057-1.433-1.487-2.098-3.832-1.978-6.973zm85.507 41.345c0 3.325-2.72 6.042-6.042 6.042h-9.319c-3.322 0-6.042 2.719-6.042 6.041v9.376c0 3.322-2.719 6.041-6.042 6.041H22.077c-3.323 0-6.042-2.719-6.042-6.041V39.644c4.026-.179 8.117-1.578 11.06-3.669 2.125 2.742 6.031 5.904 12.737 5.904.229 0 .46-.004.696-.012 6.829-.224 11.361-4.458 13.576-7.167 2.474.938 6.563 2.189 10.779 2.189 4.736 0 8.583-1.606 11.271-4.606v.178h10.692c3.322 0 6.042 2.718 6.042 6.042v27.45z"></path></g><!----></svg>